<?xml version="1.0" encoding="UTF-8" standalone="no"?>
<svg
   width="724px"
   height="1024px"
   viewBox="0 0 724 1024"
   version="1.1"
   id="svg69"
   sodipodi:docname="crystalux-logo-minimal.svg"
   inkscape:version="1.1 (c4e8f9ed74, 2021-05-24)"
   xmlns:inkscape="http://www.inkscape.org/namespaces/inkscape"
   xmlns:sodipodi="http://sodipodi.sourceforge.net/DTD/sodipodi-0.dtd"
   xmlns:xlink="http://www.w3.org/1999/xlink"
   xmlns="http://www.w3.org/2000/svg"
   xmlns:svg="http://www.w3.org/2000/svg">
  <sodipodi:namedview
     id="namedview71"
     pagecolor="#ffffff"
     bordercolor="#666666"
     borderopacity="1.0"
     inkscape:pageshadow="2"
     inkscape:pageopacity="0.0"
     inkscape:pagecheckerboard="0"
     showgrid="false"
     inkscape:zoom="0.79101562"
     inkscape:cx="133.37284"
     inkscape:cy="510.7358"
     inkscape:window-width="1900"
     inkscape:window-height="1010"
     inkscape:window-x="10"
     inkscape:window-y="50"
     inkscape:window-maximized="1"
     inkscape:current-layer="svg69" />
  <defs
     id="defs57">
    <path
       d="M142 732.5L653 220.5L432.5 0L362 70.5L511.5 220.5L0 732.5L142 732.5Z"
       transform="translate(71 291.5)"
       id="path_1" />
    <path
       d="M511 0L0 512L219.5 731.5L219.5 731.5L220.5 731.5L290.5 661.5L141.5 512L651.5 0L511 0Z"
       id="path_2" />
    <clipPath
       id="clip_1">
      <use
         xlink:href="#path_1"
         id="use51" />
    </clipPath>
    <clipPath
       id="clip_2">
      <use
         xlink:href="#path_2"
         id="use54" />
    </clipPath>
  </defs>
  <g
     id="New-shape">
    <g
       clip-path="url(#clip_1)"
       id="g61">
      <use
         xlink:href="#path_1"
         fill="none"
         stroke="#000000"
         stroke-width="408"
         id="use59" />
    </g>
  </g>
  <g
     id="New-shape-2">
    <g
       clip-path="url(#clip_2)"
       id="g66">
      <use
         xlink:href="#path_2"
         fill="none"
         stroke="#000000"
         stroke-width="398"
         id="use64" />
    </g>
  </g>
  <path
     style="fill:#ff00ff;stroke-width:1.2642"
     d="M 110.29922,621.66714 0.63363729,511.99612 256.32902,256.30308 512.0244,0.61002954 580.55791,0.93711347 649.09141,1.2641975 394.87147,256.45565 140.65152,511.6471 l 12.46964,12.81843 c 6.8583,7.05013 40.34776,40.83664 74.42103,75.08112 l 61.95141,62.2627 -34.7644,34.7644 -34.7644,34.7644 z"
     id="path227" />
  <path
     style="fill:#ff00ff;stroke-width:1.2642"
     d="m 163.47813,932.66173 c 49.4085,-49.8884 164.07304,-164.90879 254.81008,-255.60089 l 164.97645,-164.89471 -74.62334,-75.17737 -74.62333,-75.17735 34.56064,-34.57779 34.56066,-34.5778 109.67352,109.66809 109.67354,109.6681 -55.93756,56.26079 C 635.78314,599.19623 521.01106,714.2558 411.49971,823.94074 L 212.38818,1023.3679 H 143.01634 73.64449 Z"
     id="path266" />
  <path
     style="fill:#ff00ff;stroke-width:1.2642"
     d="m 154.62911,942.77531 c 43.84588,-44.32593 158.2624,-159.09849 254.25892,-255.05013 95.99652,-95.95165 174.53913,-175.02542 174.53913,-175.71948 0,-0.69406 -33.42067,-34.68619 -74.26814,-75.53808 l -74.26815,-74.27614 34.1327,-34.1327 34.13269,-34.13269 109.11818,109.12365 109.11819,109.12366 -254.95,255.59725 -254.94999,255.59725 H 143.20098 74.909317 Z"
     id="path305" />
  <path
     style="fill:#ff00ff;stroke-width:1.2642"
     d="m 148.30839,949.0963 c 40.36923,-40.84939 154.78564,-155.62197 254.25868,-255.0502 99.47305,-99.42823 180.86009,-181.32756 180.86009,-181.99853 0,-0.67097 -33.416,-34.66775 -74.25777,-75.54839 L 434.91161,362.17073 469.03393,328.04841 503.15626,293.92609 612.32354,403.09884 721.49083,512.2716 466.46245,767.81975 211.43409,1023.3679 H 143.17194 74.909798 Z"
     id="path344" />
  <path
     style="fill:#ff00ff;stroke-width:1.2642"
     d="M 110.6256,987.02925 C 130.43732,967.043 245.04127,852.13085 365.30103,731.66895 l 218.65411,-219.02166 -4.97667,-5.38043 c -2.73717,-2.95924 -36.27657,-36.81185 -74.53201,-75.22804 l -69.55534,-69.8476 34.13257,-34.13257 34.13257,-34.13256 L 612.38883,403.16413 721.6214,512.40217 466.47861,767.88503 211.33584,1023.3679 H 142.97006 74.60429 Z"
     id="path383" />
  <path
     style="fill:#a900ff;stroke-width:1.2642;fill-opacity:1"
     d="m 106.83399,990.82115 c 17.72525,-17.90071 132.33523,-132.819 254.68884,-255.37396 l 222.46111,-222.82721 -9.43017,-9.79147 c -5.1866,-5.38531 -38.73242,-39.23185 -74.54628,-75.21453 L 434.89141,362.19093 469.02383,328.05851 503.15626,293.92609 612.46789,403.2432 721.77952,512.5603 466.48723,767.96411 211.19493,1023.3679 H 142.90059 74.606247 Z"
     id="path422" />
  <path
     style="fill:#a900ff;fill-opacity:1;stroke-width:1.2642"
     d="M 110.93129,621.03501 1.8978504,511.99611 257.58102,256.59936 513.2642,1.2026066 579.95327,1.8655008 646.64235,2.5283951 393.05234,257.14022 139.46231,511.75204 l 35.82888,36.15361 c 19.70588,19.88449 53.17782,53.64802 74.3821,75.03006 l 38.5532,38.87645 -34.13088,34.13088 -34.13088,34.13087 z"
     id="path1313" />
</svg>
